<?xml version="1.0" encoding="iso-8859-1"?>
<!-- Generator: Adobe Illustrator 19.0.0, SVG Export Plug-In . SVG Version: 6.00 Build 0)  -->
<svg xmlns="http://www.w3.org/2000/svg" xmlns:xlink="http://www.w3.org/1999/xlink" version="1.1" id="Layer_1" x="0px" y="0px" viewBox="0 0 512.001 512.001" style="enable-background:new 0 0 512.001 512.001;" xml:space="preserve" width="512px" height="512px">
<g>
	<g>
		<path d="M400,0H112C87.6,0,68,19.6,68,44v424c0,24.4,19.6,44,44,44h288c24.4,0,44-19.6,44-44V44C444.001,19.6,424.401,0,400,0z     M436,468c0,20-16,36-36,36H112c-20,0-36-16-36-36V44c0-20,16-36,36-36h288c20,0,36,16,36,36V468z" fill="#FFFFFF"/>
	</g>
</g>
<g>
	<g>
		<path d="M256,204c-66,0-120,54-120,120s54,120,120,120s120-54,120-120S322.001,204,256,204z M256,436c-61.6,0-112-50.4-112-112    s50.4-112,112-112s112,50.4,112,112S317.6,436,256,436z" fill="#FFFFFF"/>
	</g>
</g>
<g>
	<g>
		<path d="M256,52c-30.8,0-56,25.2-56,56c0,30.8,25.2,56,56,56c30.8,0,56-25.2,56-56C312.001,77.199,286.801,52,256,52z M256,156    c-26.4,0-48-21.6-48-48c0-26.4,21.6-48,48-48s48,21.6,48,48C304,134.4,282.4,156,256,156z" fill="#FFFFFF"/>
	</g>
</g>
<g>
	<g>
		<path d="M256,224c-55.2,0-100,44.8-100,100c0,55.2,44.8,100.001,100,100.001c55.2,0,100-44.8,100-100S311.2,224,256,224z M256,416    c-50.8,0-92-41.2-92-92C164,273.2,205.2,232,256,232s92,41.2,92,92S306.801,416,256,416z" fill="#FFFFFF"/>
	</g>
</g>
<g>
	<g>
		<path d="M256,268c-30.8,0-56,25.2-56,56s25.2,56,56,56c30.8,0,56-25.2,56-56S286.801,268,256,268z M256,372c-26.4,0-48-21.6-48-48    s21.6-48,48-48s48,21.6,48,48S282.4,372,256,372z" fill="#FFFFFF"/>
	</g>
</g>
<g>
	<g>
		<path d="M256,72c-20,0-36,16-36,36c0,20,16,36,36,36s36-16,36-36C292,88,276,72,256,72z M256,136c-15.6,0-28-12.4-28-28    c0-15.6,12.4-28,28-28s28,12.4,28,28C284.001,123.6,271.601,136,256,136z" fill="#FFFFFF"/>
	</g>
</g>
<g>
	<g>
		<path d="M112,32c-6.8,0-12,5.2-12,12c0,6.8,5.2,12,12,12s12-5.2,12-12C124.001,37.2,118.8,32,112,32z M112,48c-2.4,0-4-1.6-4-4    s1.6-4,4-4s4,1.6,4,4S114.401,48,112,48z" fill="#FFFFFF"/>
	</g>
</g>
<g>
	<g>
		<path d="M400,32c-6.8,0-12,5.2-12,12c0,6.8,5.2,12,12,12s12-5.2,12-12C412.001,37.2,406.8,32,400,32z M400,48c-2.4,0-4-1.6-4-4    s1.6-4,4-4c2.399,0,4,1.6,4,4S402.401,48,400,48z" fill="#FFFFFF"/>
	</g>
</g>
<g>
	<g>
		<path d="M112,456c-6.8,0-12,5.2-12,12s5.2,12,12,12s12-5.2,12-12S118.8,456,112,456z M112,472c-2.4,0-4-1.6-4-4s1.6-4,4-4    s4,1.6,4,4S114.401,472,112,472z" fill="#FFFFFF"/>
	</g>
</g>
<g>
	<g>
		<path d="M400,456c-6.8,0-12,5.2-12,12s5.2,12,12,12s12-5.2,12-12S406.8,456,400,456z M400,472c-2.4,0-4-1.6-4-4s1.6-4,4-4    c2.399,0,4,1.6,4,4S402.401,472,400,472z" fill="#FFFFFF"/>
	</g>
</g>
<g>
</g>
<g>
</g>
<g>
</g>
<g>
</g>
<g>
</g>
<g>
</g>
<g>
</g>
<g>
</g>
<g>
</g>
<g>
</g>
<g>
</g>
<g>
</g>
<g>
</g>
<g>
</g>
<g>
</g>
</svg>
