<?xml version="1.0" encoding="iso-8859-1"?>
<!-- Generator: Adobe Illustrator 19.0.0, SVG Export Plug-In . SVG Version: 6.00 Build 0)  -->
<svg version="1.1" id="Layer_1" xmlns="http://www.w3.org/2000/svg" xmlns:xlink="http://www.w3.org/1999/xlink" x="0px" y="0px"
	 viewBox="0 0 512 512" style="enable-background:new 0 0 512 512;" xml:space="preserve">
<rect y="172.097" style="fill:#25B6D2;" width="84.471" height="167.709"/>
<polygon style="fill:#E04F5F;" points="247.907,423.141 84.471,339.807 84.471,172.097 247.907,88.763 "/>
<g>
	<path style="fill:#AAC1CE;" d="M315.889,367.033l-18.889-25.834c27.218-19.89,43.347-51.54,43.467-85.247
		c0.112-33.771-16.081-65.517-43.475-85.255l18.889-25.834c61.349,44.595,74.934,130.482,30.338,191.831
		C337.754,348.335,327.522,358.576,315.889,367.033L315.889,367.033z"/>
	<path style="fill:#AAC1CE;" d="M379.494,404.644l-22.314-22.938c69.453-67.325,71.182-178.206,3.856-247.659
		c-1.264-1.304-2.552-2.592-3.856-3.856l22.314-22.938c82.118,79.646,84.127,210.792,4.48,292.911
		C382.502,401.683,381.006,403.18,379.494,404.644z"/>
	<path style="fill:#AAC1CE;" d="M438.938,442.959l-23.578-21.602c86.183-93.407,86.183-237.355,0-330.762l23.578-21.602
		c97.416,105.64,97.416,268.373,0,374.013V442.959z"/>
</g>
<g>
</g>
<g>
</g>
<g>
</g>
<g>
</g>
<g>
</g>
<g>
</g>
<g>
</g>
<g>
</g>
<g>
</g>
<g>
</g>
<g>
</g>
<g>
</g>
<g>
</g>
<g>
</g>
<g>
</g>
</svg>
